<svg xmlns="http://www.w3.org/2000/svg" xmlns:xlink="http://www.w3.org/1999/xlink" width="121.335" height="121.335" viewBox="0 0 121.335 121.335">
  <defs>
    <clipPath id="clip-path">
      <rect id="Rectángulo_457743" data-name="Rectángulo 457743" width="66.304" height="83.714" fill="none"/>
    </clipPath>
  </defs>
  <g id="Grupo_1196606" data-name="Grupo 1196606" transform="translate(-13461 7711.666)">
    <g id="Grupo_1195938" data-name="Grupo 1195938" transform="translate(13461 -7711.666)">
      <g id="Grupo_1176945" data-name="Grupo 1176945" transform="translate(0 0)">
        <path id="Trazado_992961" data-name="Trazado 992961" d="M121.335,60.668A60.668,60.668,0,1,1,60.667,0a60.667,60.667,0,0,1,60.668,60.668" transform="translate(0 0)" fill="#944d22"/>
      </g>
    </g>
    <g id="Grupo_1196516" data-name="Grupo 1196516" transform="translate(13492.432 -7694.537)">
      <g id="Grupo_1196515" data-name="Grupo 1196515" clip-path="url(#clip-path)">
        <path id="Trazado_1039074" data-name="Trazado 1039074" d="M50.66,130.883H5.64A5.672,5.672,0,0,1,0,125.243V62.029a5.641,5.641,0,0,1,5.64-5.64H15.3a.982.982,0,0,1,0,1.962H5.64a3.7,3.7,0,0,0-3.678,3.678v63.215a3.7,3.7,0,0,0,3.678,3.678H50.66a3.7,3.7,0,0,0,3.678-3.678V95.23a.981.981,0,0,1,1.962,0v30.013a5.672,5.672,0,0,1-5.64,5.64m4.659-54.73a.984.984,0,0,1-.981-.981V62.029a3.7,3.7,0,0,0-3.678-3.678H41.048a.981.981,0,1,1,0-1.962H50.66a5.609,5.609,0,0,1,5.64,5.64V75.172a.984.984,0,0,1-.981.981" transform="translate(0 -47.169)" fill="#212121" fill-rule="evenodd"/>
        <path id="Trazado_1039075" data-name="Trazado 1039075" d="M112.692,16.282H90.133a2.533,2.533,0,0,1-2.55-2.55V7.994a2.533,2.533,0,0,1,2.55-2.55h4.953a6.4,6.4,0,0,1,12.653,0h4.953a2.575,2.575,0,0,1,2.6,2.55v5.738a2.575,2.575,0,0,1-2.6,2.55M90.133,7.405a.608.608,0,0,0-.637.588v5.738a.608.608,0,0,0,.637.589h22.559a.608.608,0,0,0,.638-.589V7.994a.608.608,0,0,0-.638-.588h-5.836a.984.984,0,0,1-.981-.981,4.463,4.463,0,0,0-8.925,0,.984.984,0,0,1-.981.981Z" transform="translate(-73.263)" fill="#212121" fill-rule="evenodd"/>
        <path id="Trazado_1039076" data-name="Trazado 1039076" d="M156.36,28.025a3.065,3.065,0,1,1,3.09-3.041,3.066,3.066,0,0,1-3.09,3.041m0-4.169a1.1,1.1,0,1,0,0,2.207,1.1,1.1,0,1,0,0-2.207" transform="translate(-128.21 -18.315)" fill="#212121" fill-rule="evenodd"/>
        <path id="Trazado_1039077" data-name="Trazado 1039077" d="M244.726,420.933a.932.932,0,0,1-.638-.245.913.913,0,0,1-.1-1.373c.049-.1,5.738-6.817,3.972-13.339a1.046,1.046,0,0,1,.294-.981,1,1,0,0,1,1.03-.2c.049.049,7.209,2.7,9.024-1.079a.934.934,0,0,1,1.275-.491.948.948,0,0,1,.491,1.275c-1.913,4.119-7.209,3.335-9.906,2.648.834,6.866-4.463,13.143-4.708,13.437a1.143,1.143,0,0,1-.736.343" transform="translate(-203.875 -337.219)" fill="#212121" fill-rule="evenodd"/>
        <path id="Trazado_1039078" data-name="Trazado 1039078" d="M40.873,309.932a.984.984,0,0,1-.981-.981V284.725a.981.981,0,1,1,1.962,0v24.227a.984.984,0,0,1-.981.981" transform="translate(-33.37 -237.351)" fill="#212121" fill-rule="evenodd"/>
        <path id="Trazado_1039079" data-name="Trazado 1039079" d="M115.987,164.23H86.464a.981.981,0,1,1,0-1.962h29.523a.981.981,0,1,1,0,1.962" transform="translate(-71.506 -135.737)" fill="#212121" fill-rule="evenodd"/>
        <path id="Trazado_1039080" data-name="Trazado 1039080" d="M100.882,222.119H86.464a.981.981,0,1,1,0-1.962h14.418a.981.981,0,1,1,0,1.962" transform="translate(-71.506 -184.161)" fill="#212121" fill-rule="evenodd"/>
        <path id="Trazado_1039081" data-name="Trazado 1039081" d="M112.849,280.007H86.465a.981.981,0,1,1,0-1.962h26.384a.981.981,0,1,1,0,1.962" transform="translate(-71.507 -232.584)" fill="#212121" fill-rule="evenodd"/>
        <path id="Trazado_1039082" data-name="Trazado 1039082" d="M103.236,453.973H86.464a.981.981,0,0,1,0-1.962h16.772a.981.981,0,0,1,0,1.962" transform="translate(-71.506 -378.105)" fill="#212121" fill-rule="evenodd"/>
        <path id="Trazado_1039083" data-name="Trazado 1039083" d="M100.882,338.2H86.464a.981.981,0,1,1,0-1.962h14.418a.981.981,0,1,1,0,1.962" transform="translate(-71.506 -281.258)" fill="#212121" fill-rule="evenodd"/>
        <path id="Trazado_1039084" data-name="Trazado 1039084" d="M112.849,396.085H86.465a.981.981,0,0,1,0-1.962h26.384a.981.981,0,0,1,0,1.962" transform="translate(-71.507 -329.682)" fill="#212121" fill-rule="evenodd"/>
        <path id="Trazado_1039085" data-name="Trazado 1039085" d="M281.881,187.287a11.01,11.01,0,1,1,10.985-11.034,11.051,11.051,0,0,1-10.985,11.034m0-20.058a9.048,9.048,0,1,0,9.024,9.024,9.073,9.073,0,0,0-9.024-9.024" transform="translate(-226.562 -138.245)" fill="#212121" fill-rule="evenodd"/>
        <path id="Trazado_1039086" data-name="Trazado 1039086" d="M320.048,205.321a1.079,1.079,0,0,1-.638-.2,1,1,0,0,1-.147-1.373l1.962-2.5v-4.708a.981.981,0,0,1,1.962,0v5.051a1.391,1.391,0,0,1-.2.638l-2.158,2.7a1.023,1.023,0,0,1-.784.392" transform="translate(-266.887 -163.587)" fill="#212121" fill-rule="evenodd"/>
        <path id="Trazado_1039087" data-name="Trazado 1039087" d="M54.321,95.212A10.993,10.993,0,0,1,64.374,84.275V72.064A3.7,3.7,0,0,0,60.7,68.386H52.065v2.55a2.575,2.575,0,0,1-2.6,2.55H26.907a2.533,2.533,0,0,1-2.55-2.55v-2.55h-8.68A3.7,3.7,0,0,0,12,72.064v63.215a3.7,3.7,0,0,0,3.678,3.678H50.4c1.128-1.471,5.247-7.307,3.727-13a1.046,1.046,0,0,1,.294-.981,1,1,0,0,1,1.03-.2c.049.049,7.013,2.6,8.926-.932V106.2A11.04,11.04,0,0,1,54.321,95.212M24.994,83.736H54.517a.981.981,0,1,1,0,1.962H24.994a.981.981,0,1,1,0-1.962m0,18.93H51.378a.981.981,0,0,1,0,1.962H24.994a.981.981,0,0,1,0-1.962m0,18.979H51.378a.981.981,0,1,1,0,1.962H24.994a.981.981,0,1,1,0-1.962m0-9.465H39.412a.981.981,0,1,1,0,1.962H24.994a.981.981,0,1,1,0-1.962m0-18.979H39.412a.981.981,0,1,1,0,1.962H24.994a.981.981,0,1,1,0-1.962m0,37.909H41.766a.981.981,0,1,1,0,1.962H24.994a.981.981,0,1,1,0-1.962M18.52,104.579v24.227a.981.981,0,1,1-1.962,0V104.579a.981.981,0,1,1,1.962,0" transform="translate(-10.036 -57.205)" fill="#d6e3ff" fill-rule="evenodd"/>
        <path id="Trazado_1039088" data-name="Trazado 1039088" d="M99.917,24.355h22.559a.608.608,0,0,0,.637-.588V18.029a.608.608,0,0,0-.637-.588h-5.836a.984.984,0,0,1-.981-.981,4.463,4.463,0,1,0-8.926,0,.984.984,0,0,1-.981.981H99.917a.608.608,0,0,0-.637.588v5.738a.608.608,0,0,0,.637.588m11.28-4.61a3.065,3.065,0,1,1,3.09-3.041,3.066,3.066,0,0,1-3.09,3.041" transform="translate(-83.047 -10.035)" fill="#a0a0a0" fill-rule="evenodd"/>
        <path id="Trazado_1039089" data-name="Trazado 1039089" d="M165.268,35.021A1.132,1.132,0,0,0,166.4,36.1a1.1,1.1,0,1,0,0-2.207,1.141,1.141,0,0,0-1.128,1.128" transform="translate(-138.246 -28.351)" fill="#a0a0a0" fill-rule="evenodd"/>
        <path id="Trazado_1039090" data-name="Trazado 1039090" d="M273.374,425.017c-2.4,1.52-5.983.981-8.043.441.588,4.9-1.913,9.465-3.482,11.819H269.7a3.7,3.7,0,0,0,3.678-3.678Z" transform="translate(-219.036 -355.525)" fill="#aeb8cf" fill-rule="evenodd"/>
        <path id="Trazado_1039091" data-name="Trazado 1039091" d="M291.918,195.362a9.048,9.048,0,1,0-9.073-9.073,9.042,9.042,0,0,0,9.073,9.073m.785-8.435-2.158,2.7a1.024,1.024,0,0,1-.785.392,1.08,1.08,0,0,1-.638-.2,1,1,0,0,1-.147-1.373l1.962-2.5v-4.708a.981.981,0,0,1,1.962,0v5.051a1.391,1.391,0,0,1-.2.638" transform="translate(-236.599 -148.282)" fill="#ff6833" fill-rule="evenodd"/>
      </g>
    </g>
  </g>
</svg>
