<svg xmlns="http://www.w3.org/2000/svg" xmlns:xlink="http://www.w3.org/1999/xlink" width="233.689" height="164.781" viewBox="0 0 233.689 164.781">
  <defs>
    <clipPath id="clip-path">
      <rect id="Rectángulo_457600" data-name="Rectángulo 457600" width="128.001" height="128.001" fill="none"/>
    </clipPath>
    <clipPath id="clip-path-3">
      <rect id="Rectángulo_457582" data-name="Rectángulo 457582" width="44.22" height="42.37" transform="translate(0.001 83.56)" fill="none"/>
    </clipPath>
    <clipPath id="clip-path-4">
      <rect id="Rectángulo_457583" data-name="Rectángulo 457583" width="44.22" height="41.93" transform="translate(83.781 83.58)" fill="none"/>
    </clipPath>
    <clipPath id="clip-path-5">
      <rect id="Rectángulo_457584" data-name="Rectángulo 457584" width="44.22" height="41.82" transform="translate(0.001 2.61)" fill="none"/>
    </clipPath>
    <clipPath id="clip-path-6">
      <rect id="Rectángulo_457585" data-name="Rectángulo 457585" width="44.22" height="42.1" transform="translate(83.781 2.37)" fill="none"/>
    </clipPath>
    <clipPath id="clip-path-7">
      <rect id="Rectángulo_457586" data-name="Rectángulo 457586" width="13.993" height="8" transform="translate(56.999 16)" fill="none"/>
    </clipPath>
    <clipPath id="clip-path-8">
      <rect id="Rectángulo_457587" data-name="Rectángulo 457587" width="8.89" height="9.28" transform="translate(10.001 30.37)" fill="none"/>
    </clipPath>
    <clipPath id="clip-path-9">
      <rect id="Rectángulo_457588" data-name="Rectángulo 457588" width="8.89" height="8.56" transform="translate(10.001 87.48)" fill="none"/>
    </clipPath>
    <clipPath id="clip-path-10">
      <rect id="Rectángulo_457589" data-name="Rectángulo 457589" width="3.34" height="4.72" transform="translate(32.131 46.7)" fill="none"/>
    </clipPath>
    <clipPath id="clip-path-11">
      <rect id="Rectángulo_457590" data-name="Rectángulo 457590" width="3.34" height="4.43" transform="translate(32.131 75.64)" fill="none"/>
    </clipPath>
    <clipPath id="clip-path-12">
      <rect id="Rectángulo_457591" data-name="Rectángulo 457591" width="8.89" height="9.28" transform="translate(109.111 30.37)" fill="none"/>
    </clipPath>
    <clipPath id="clip-path-13">
      <rect id="Rectángulo_457592" data-name="Rectángulo 457592" width="8.89" height="8.56" transform="translate(109.111 87.48)" fill="none"/>
    </clipPath>
    <clipPath id="clip-path-14">
      <rect id="Rectángulo_457593" data-name="Rectángulo 457593" width="3.34" height="4.72" transform="translate(92.531 46.7)" fill="none"/>
    </clipPath>
    <clipPath id="clip-path-15">
      <rect id="Rectángulo_457594" data-name="Rectángulo 457594" width="3.34" height="4.43" transform="translate(92.531 75.64)" fill="none"/>
    </clipPath>
    <clipPath id="clip-path-16">
      <rect id="Rectángulo_457596" data-name="Rectángulo 457596" width="24" height="2" transform="translate(52.001 46)" fill="none"/>
    </clipPath>
    <clipPath id="clip-path-17">
      <rect id="Rectángulo_457598" data-name="Rectángulo 457598" width="24" height="2" transform="translate(52.001 80)" fill="none"/>
    </clipPath>
  </defs>
  <g id="Grupo_1196596" data-name="Grupo 1196596" transform="translate(-1030 -1465.599)">
    <g id="Grupo_1196334" data-name="Grupo 1196334">
      <rect id="Rectángulo_401023" data-name="Rectángulo 401023" width="160.605" height="164.781" rx="20" transform="translate(1077.429 1465.599)" fill="#1e3a8a"/>
      <rect id="Rectángulo_401024" data-name="Rectángulo 401024" width="157" height="78.734" rx="20" transform="translate(1105.189 1535.74)" fill="none" stroke="#fe8938" stroke-miterlimit="10" stroke-width="3"/>
      <g id="Grupo_1196329" data-name="Grupo 1196329" transform="translate(1030 1487)">
        <g id="Grupo_1196328" data-name="Grupo 1196328" clip-path="url(#clip-path)">
          <path id="Trazado_1038261" data-name="Trazado 1038261" d="M127.161,2.37l-1.22.36L85.011,39l-1.23,3.41V87.57l43.53,37.94.69.6V2.13Z" fill="#e1ebf4"/>
          <path id="Trazado_1038262" data-name="Trazado 1038262" d="M0,127.33l1.48-1.4,42.74-40.339V42.411L43.181,39,.561,2.611,0,2.13Z" fill="#e1ebf4"/>
          <g id="Grupo_1196327" data-name="Grupo 1196327">
            <g id="Grupo_1196326" data-name="Grupo 1196326" clip-path="url(#clip-path)">
              <path id="Trazado_1038263" data-name="Trazado 1038263" d="M66,12.1V2a2,2,0,1,0-4,0V12.1c-3.62.92-9.89,4.95-8.89,14.12A2,2,0,0,0,55.1,28H62a2,2,0,0,0,4,0h6.9a2,2,0,0,0,1.99-1.78c1-9.17-5.27-13.2-8.89-14.12M57,24a8.158,8.158,0,0,1,5.89-8h2.22a8.181,8.181,0,0,1,5.88,8Z" fill="#1c233b"/>
              <path id="Trazado_1038264" data-name="Trazado 1038264" d="M70.991,24H57a8.158,8.158,0,0,1,5.89-8h2.22a8.18,8.18,0,0,1,5.88,8" fill="#81d9e3"/>
              <path id="Trazado_1038265" data-name="Trazado 1038265" d="M22.161,35.16S9.291,24.62,9.271,24.6A2.018,2.018,0,0,0,6,26.15V100a1.991,1.991,0,0,0,1.1,1.79,2.05,2.05,0,0,0,2.09-.18l12.89-9.51a2.011,2.011,0,0,0,.81-1.61V36.7a2,2,0,0,0-.73-1.54m-3.27,54.32L10,96.04V30.37l8.89,7.28Z" fill="#1c233b"/>
              <path id="Trazado_1038266" data-name="Trazado 1038266" d="M18.891,37.65V89.48L10,96.04V30.37Z" fill="#81d9e3"/>
              <path id="Trazado_1038267" data-name="Trazado 1038267" d="M38.741,46.91s-7.33-5.95-7.34-5.96a2.018,2.018,0,0,0-3.27,1.55V84a2.009,2.009,0,0,0,3.18,1.62l7.34-5.35a2,2,0,0,0,.82-1.62V48.47a2.019,2.019,0,0,0-.73-1.56m-3.27,30.73-3.34,2.43V46.7l3.34,2.72Z" fill="#1c233b"/>
              <path id="Trazado_1038268" data-name="Trazado 1038268" d="M35.471,49.42V77.64l-3.34,2.43V46.7Z" fill="#81d9e3"/>
              <path id="Trazado_1038269" data-name="Trazado 1038269" d="M14.448,49.25a2,2,0,0,0-2,2V54.5a2,2,0,0,0,4,0V51.25a2,2,0,0,0-2-2" fill="#1c233b"/>
              <path id="Trazado_1038270" data-name="Trazado 1038270" d="M14.448,77.5a2,2,0,0,0-2,2v3.25a2,2,0,0,0,4,0V79.5a2,2,0,0,0-2-2" fill="#1c233b"/>
              <path id="Trazado_1038271" data-name="Trazado 1038271" d="M120.861,24.34a2.013,2.013,0,0,0-2.13.26l-12.89,10.56a2,2,0,0,0-.73,1.54V90.49a2.011,2.011,0,0,0,.81,1.61s12.87,9.49,12.89,9.51a2.087,2.087,0,0,0,2.09.18A1.991,1.991,0,0,0,122,100V26.15a2.018,2.018,0,0,0-1.14-1.81M118,96.04l-8.89-6.56V37.65L118,30.37Z" fill="#1c233b"/>
              <path id="Trazado_1038272" data-name="Trazado 1038272" d="M118,30.37V96.04l-8.89-6.56V37.65Z" fill="#81d9e3"/>
              <path id="Trazado_1038273" data-name="Trazado 1038273" d="M98.721,40.69a2,2,0,0,0-2.12.26l-7.34,5.96a2.018,2.018,0,0,0-.73,1.56V78.65a2,2,0,0,0,.82,1.62s7.33,5.34,7.34,5.35a2.042,2.042,0,0,0,2.08.16,2,2,0,0,0,1.1-1.78V42.5A2.02,2.02,0,0,0,98.721,40.69Zm-2.85,39.38-3.34-2.43V49.42l3.34-2.72Z" fill="#1c233b"/>
              <path id="Trazado_1038274" data-name="Trazado 1038274" d="M95.871,46.7V80.07l-3.34-2.43V49.42Z" fill="#81d9e3"/>
              <path id="Trazado_1038275" data-name="Trazado 1038275" d="M113.554,56.5a2,2,0,0,0,2-2V51.25a2,2,0,1,0-4,0V54.5a2,2,0,0,0,2,2" fill="#1c233b"/>
              <path id="Trazado_1038276" data-name="Trazado 1038276" d="M113.554,84.75a2,2,0,0,0,2-2V79.5a2,2,0,0,0-4,0v3.25a2,2,0,0,0,2,2" fill="#1c233b"/>
              <path id="Trazado_1038277" data-name="Trazado 1038277" d="M73,96a2,2,0,0,0,0-4H55a2,2,0,0,0,0,4Z" fill="#1c233b"/>
              <path id="Trazado_1038278" data-name="Trazado 1038278" d="M41,104a2,2,0,0,0,2,2H85a2,2,0,0,0,0-4H43a2,2,0,0,0-2,2" fill="#1c233b"/>
              <path id="Trazado_1038279" data-name="Trazado 1038279" d="M93,112H35a2,2,0,0,0,0,4H93a2,2,0,0,0,0-4" fill="#1c233b"/>
              <path id="Trazado_1038280" data-name="Trazado 1038280" d="M78,42H50a2.006,2.006,0,0,0-2,2V84a2.006,2.006,0,0,0,2,2H78a2.006,2.006,0,0,0,2-2V44a2.006,2.006,0,0,0-2-2M76,82H52V46H76Z" fill="#1c233b"/>
              <rect id="Rectángulo_457581" data-name="Rectángulo 457581" width="24" height="36" transform="translate(52.001 46)" fill="#d68751"/>
              <path id="Trazado_1038281" data-name="Trazado 1038281" d="M70,62H68a2,2,0,0,0,0,4h2a2,2,0,0,0,0-4" fill="#1c233b"/>
              <g id="Grupo_1196283" data-name="Grupo 1196283" opacity="0.5" style="isolation: isolate">
                <g id="Grupo_1196282" data-name="Grupo 1196282">
                  <g id="Grupo_1196281" data-name="Grupo 1196281" clip-path="url(#clip-path-3)">
                    <path id="Trazado_1038282" data-name="Trazado 1038282" d="M44.221,83.56v2.03L1.481,125.93a2.032,2.032,0,0,1-.97-.6,1.99,1.99,0,0,1,.15-2.811l.01-.009Z" fill="#9fa5aa"/>
                  </g>
                </g>
              </g>
              <g id="Grupo_1196286" data-name="Grupo 1196286" opacity="0.5" style="isolation: isolate">
                <g id="Grupo_1196285" data-name="Grupo 1196285">
                  <g id="Grupo_1196284" data-name="Grupo 1196284" clip-path="url(#clip-path-4)">
                    <path id="Trazado_1038283" data-name="Trazado 1038283" d="M128,124a1.981,1.981,0,0,1-.51,1.33l-.18.18L83.781,87.57V83.58l43.55,38.93A1.976,1.976,0,0,1,128,124" fill="#9fa5aa"/>
                  </g>
                </g>
              </g>
              <path id="Trazado_1038284" data-name="Trazado 1038284" d="M44.221,85.59.668,124.509a2,2,0,0,0,2.665,2.984h0l43.2-38.6a6,6,0,0,1-2.311-3.3" fill="#1c233b"/>
              <path id="Trazado_1038285" data-name="Trazado 1038285" d="M83.781,85.59a6,6,0,0,1-2.311,3.3l43.2,38.6a2,2,0,0,0,2.666-2.983Z" fill="#1c233b"/>
              <g id="Grupo_1196289" data-name="Grupo 1196289" opacity="0.5" style="isolation: isolate">
                <g id="Grupo_1196288" data-name="Grupo 1196288">
                  <g id="Grupo_1196287" data-name="Grupo 1196287" clip-path="url(#clip-path-5)">
                    <path id="Trazado_1038286" data-name="Trazado 1038286" d="M44.221,42.41v2.02L.671,5.49A1.958,1.958,0,0,1,0,4a2,2,0,0,1,.51-1.33.262.262,0,0,0,.05-.06L43.181,39Z" fill="#fff"/>
                  </g>
                </g>
              </g>
              <g id="Grupo_1196292" data-name="Grupo 1196292" opacity="0.5" style="isolation: isolate">
                <g id="Grupo_1196291" data-name="Grupo 1196291">
                  <g id="Grupo_1196290" data-name="Grupo 1196290" clip-path="url(#clip-path-6)">
                    <path id="Trazado_1038287" data-name="Trazado 1038287" d="M128,4a1.958,1.958,0,0,1-.67,1.49L83.781,44.47V42.41L85.011,39l40.93-36.27,1.22-.36a1.57,1.57,0,0,1,.33.3A2,2,0,0,1,128,4" fill="#fff"/>
                  </g>
                </g>
              </g>
              <path id="Trazado_1038288" data-name="Trazado 1038288" d="M44.221,42.411a6,6,0,0,1,2.311-3.3L3.334.509A2,2,0,0,0,.668,3.492Z" fill="#1c233b"/>
              <path id="Trazado_1038289" data-name="Trazado 1038289" d="M83.781,42.411,127.334,3.492A2,2,0,0,0,124.668.509l-43.2,38.6a6,6,0,0,1,2.311,3.3" fill="#1c233b"/>
              <g id="Grupo_1196295" data-name="Grupo 1196295" opacity="0.4" style="isolation: isolate">
                <g id="Grupo_1196294" data-name="Grupo 1196294">
                  <g id="Grupo_1196293" data-name="Grupo 1196293" clip-path="url(#clip-path-7)">
                    <path id="Trazado_1038290" data-name="Trazado 1038290" d="M70.991,24h-.25a8.077,8.077,0,0,0-5.63-6h-2.22a8.1,8.1,0,0,0-5.65,6H57a8.158,8.158,0,0,1,5.89-8h2.22a8.181,8.181,0,0,1,5.88,8" fill="#e8fbfc"/>
                  </g>
                </g>
              </g>
              <g id="Grupo_1196298" data-name="Grupo 1196298" opacity="0.4" style="isolation: isolate">
                <g id="Grupo_1196297" data-name="Grupo 1196297">
                  <g id="Grupo_1196296" data-name="Grupo 1196296" clip-path="url(#clip-path-8)">
                    <path id="Trazado_1038291" data-name="Trazado 1038291" d="M18.891,37.65v2L10,32.37v-2Z" fill="#e8fbfc"/>
                  </g>
                </g>
              </g>
              <g id="Grupo_1196301" data-name="Grupo 1196301" opacity="0.3" style="isolation: isolate">
                <g id="Grupo_1196300" data-name="Grupo 1196300">
                  <g id="Grupo_1196299" data-name="Grupo 1196299" clip-path="url(#clip-path-9)">
                    <path id="Trazado_1038292" data-name="Trazado 1038292" d="M18.891,87.48v2L10,96.04v-2Z" fill="#0f423c"/>
                  </g>
                </g>
              </g>
              <g id="Grupo_1196304" data-name="Grupo 1196304" opacity="0.4" style="isolation: isolate">
                <g id="Grupo_1196303" data-name="Grupo 1196303">
                  <g id="Grupo_1196302" data-name="Grupo 1196302" clip-path="url(#clip-path-10)">
                    <path id="Trazado_1038293" data-name="Trazado 1038293" d="M35.471,49.42v2l-3.34-2.72v-2Z" fill="#e8fbfc"/>
                  </g>
                </g>
              </g>
              <g id="Grupo_1196307" data-name="Grupo 1196307" opacity="0.3" style="isolation: isolate">
                <g id="Grupo_1196306" data-name="Grupo 1196306">
                  <g id="Grupo_1196305" data-name="Grupo 1196305" clip-path="url(#clip-path-11)">
                    <path id="Trazado_1038294" data-name="Trazado 1038294" d="M35.471,75.64v2l-3.34,2.43v-2Z" fill="#0f423c"/>
                  </g>
                </g>
              </g>
              <g id="Grupo_1196310" data-name="Grupo 1196310" opacity="0.4" style="isolation: isolate">
                <g id="Grupo_1196309" data-name="Grupo 1196309">
                  <g id="Grupo_1196308" data-name="Grupo 1196308" clip-path="url(#clip-path-12)">
                    <path id="Trazado_1038295" data-name="Trazado 1038295" d="M118,30.37v2l-8.89,7.28v-2Z" fill="#e8fbfc"/>
                  </g>
                </g>
              </g>
              <g id="Grupo_1196313" data-name="Grupo 1196313" opacity="0.3" style="isolation: isolate">
                <g id="Grupo_1196312" data-name="Grupo 1196312">
                  <g id="Grupo_1196311" data-name="Grupo 1196311" clip-path="url(#clip-path-13)">
                    <path id="Trazado_1038296" data-name="Trazado 1038296" d="M118,94.04v2l-8.89-6.56v-2Z" fill="#0f423c"/>
                  </g>
                </g>
              </g>
              <g id="Grupo_1196316" data-name="Grupo 1196316" opacity="0.4" style="isolation: isolate">
                <g id="Grupo_1196315" data-name="Grupo 1196315">
                  <g id="Grupo_1196314" data-name="Grupo 1196314" clip-path="url(#clip-path-14)">
                    <path id="Trazado_1038297" data-name="Trazado 1038297" d="M95.871,46.7v2l-3.34,2.72v-2Z" fill="#e8fbfc"/>
                  </g>
                </g>
              </g>
              <g id="Grupo_1196319" data-name="Grupo 1196319" opacity="0.3" style="isolation: isolate">
                <g id="Grupo_1196318" data-name="Grupo 1196318">
                  <g id="Grupo_1196317" data-name="Grupo 1196317" clip-path="url(#clip-path-15)">
                    <path id="Trazado_1038298" data-name="Trazado 1038298" d="M95.871,78.07v2l-3.34-2.43v-2Z" fill="#0f423c"/>
                  </g>
                </g>
              </g>
              <g id="Grupo_1196322" data-name="Grupo 1196322" opacity="0.3" style="isolation: isolate">
                <g id="Grupo_1196321" data-name="Grupo 1196321">
                  <g id="Grupo_1196320" data-name="Grupo 1196320" clip-path="url(#clip-path-16)">
                    <rect id="Rectángulo_457595" data-name="Rectángulo 457595" width="24" height="2" transform="translate(52.001 46)" fill="#e5d0c3"/>
                  </g>
                </g>
              </g>
              <g id="Grupo_1196325" data-name="Grupo 1196325" opacity="0.4" style="isolation: isolate">
                <g id="Grupo_1196324" data-name="Grupo 1196324">
                  <g id="Grupo_1196323" data-name="Grupo 1196323" clip-path="url(#clip-path-17)">
                    <rect id="Rectángulo_457597" data-name="Rectángulo 457597" width="24" height="2" transform="translate(52.001 80)" fill="#72492d"/>
                  </g>
                </g>
              </g>
            </g>
          </g>
        </g>
      </g>
    </g>
  </g>
</svg>
