<svg xmlns="http://www.w3.org/2000/svg" xmlns:xlink="http://www.w3.org/1999/xlink" width="123.885" height="123.885" viewBox="0 0 123.885 123.885">
  <defs>
    <clipPath id="clip-path">
      <rect id="Rectángulo_457670" data-name="Rectángulo 457670" width="86.391" height="86.391" fill="none" stroke="#fff" stroke-width="3"/>
    </clipPath>
  </defs>
  <g id="Grupo_1196618" data-name="Grupo 1196618" transform="translate(-1212.057 -10061.059)">
    <g id="Grupo_1195919" data-name="Grupo 1195919" transform="translate(0 1005.572)">
      <g id="Grupo_1177098" data-name="Grupo 1177098" transform="translate(1212.057 9055.486)">
        <g id="Grupo_1176953" data-name="Grupo 1176953" transform="translate(0 0)">
          <path id="Trazado_993120" data-name="Trazado 993120" d="M123.885,61.943A61.942,61.942,0,1,1,61.942,0a61.942,61.942,0,0,1,61.943,61.943" transform="translate(0 0)" fill="#122253"/>
        </g>
      </g>
    </g>
    <g id="Grupo_1196480" data-name="Grupo 1196480" transform="translate(1232.059 10073.609)">
      <g id="Grupo_1196479" data-name="Grupo 1196479" clip-path="url(#clip-path)">
        <path id="Trazado_1038870" data-name="Trazado 1038870" d="M585.013,229.15h2.764a1.146,1.146,0,0,1,1.146,1.146v12.64" transform="translate(-510.98 -200.151)" fill="none" stroke="#fff" stroke-linecap="round" stroke-linejoin="round" stroke-width="3"/>
        <path id="Trazado_1038871" data-name="Trazado 1038871" d="M453.4,242.935V230.3a1.146,1.146,0,0,1,1.146-1.146h9.6" transform="translate(-396.019 -200.15)" fill="none" stroke="#fff" stroke-linecap="round" stroke-linejoin="round" stroke-width="3"/>
        <path id="Trazado_1038872" data-name="Trazado 1038872" d="M454.39,344.889v-6.033a.77.77,0,0,0-.77-.77H427.961a.77.77,0,0,0-.77.77v6.033" transform="translate(-373.13 -295.301)" fill="none" stroke="#fff" stroke-linecap="round" stroke-linejoin="round" stroke-width="3"/>
        <path id="Trazado_1038873" data-name="Trazado 1038873" d="M340.14,151.039h-6.157a3.009,3.009,0,1,1,0-6.019h6.157a3.009,3.009,0,1,1,0,6.019Z" transform="translate(-289.089 -126.668)" fill="none" stroke="#fff" stroke-linecap="round" stroke-linejoin="round" stroke-width="3"/>
        <line id="Línea_3292" data-name="Línea 3292" y2="25.217" transform="translate(47.972 24.371)" fill="none" stroke="#fff" stroke-linecap="round" stroke-linejoin="round" stroke-width="3"/>
        <path id="Trazado_1038874" data-name="Trazado 1038874" d="M477.62,463.565h17.826a1.6,1.6,0,0,0,1.6-1.6V439.9" transform="translate(-417.178 -384.232)" fill="none" stroke="#fff" stroke-linecap="round" stroke-linejoin="round" stroke-width="3"/>
        <path id="Trazado_1038875" data-name="Trazado 1038875" d="M51.526,439.9v22.061a1.6,1.6,0,0,0,1.6,1.6H99.542" transform="translate(-45.005 -384.232)" fill="none" stroke="#fff" stroke-linecap="round" stroke-linejoin="round" stroke-width="3"/>
        <line id="Línea_3293" data-name="Línea 3293" x1="2.373" y1="6.3" transform="translate(23.848 24.076)" fill="none" stroke="#fff" stroke-linecap="round" stroke-linejoin="round" stroke-width="3"/>
        <line id="Línea_3294" data-name="Línea 3294" x1="2.372" y2="6.3" transform="translate(15.071 24.076)" fill="none" stroke="#fff" stroke-linecap="round" stroke-linejoin="round" stroke-width="3"/>
        <path id="Trazado_1038876" data-name="Trazado 1038876" d="M223.534,299.082a2.274,2.274,0,0,0,2.21-1.741l2.818-11.7" transform="translate(-195.246 -249.493)" fill="none" stroke="#fff" stroke-linecap="round" stroke-linejoin="round" stroke-width="3"/>
        <path id="Trazado_1038877" data-name="Trazado 1038877" d="M63.026,285.64l2.818,11.7a2.274,2.274,0,0,0,2.211,1.741" transform="translate(-55.05 -249.493)" fill="none" stroke="#fff" stroke-linecap="round" stroke-linejoin="round" stroke-width="3"/>
        <path id="Trazado_1038878" data-name="Trazado 1038878" d="M56.429,245.818h-13a2.886,2.886,0,1,1,0-5.772H68.69a2.886,2.886,0,1,1,0,5.772H62.335" transform="translate(-35.415 -209.668)" fill="none" stroke="#fff" stroke-linecap="round" stroke-linejoin="round" stroke-width="3"/>
        <line id="Línea_3295" data-name="Línea 3295" y2="1.035" transform="translate(17.325 41.938)" fill="none" stroke="#fff" stroke-linecap="round" stroke-linejoin="round" stroke-width="3"/>
        <line id="Línea_3296" data-name="Línea 3296" y2="1.035" transform="translate(23.967 41.938)" fill="none" stroke="#fff" stroke-linecap="round" stroke-linejoin="round" stroke-width="3"/>
        <path id="Rectángulo_457669" data-name="Rectángulo 457669" d="M3.04,0H80.82a3.04,3.04,0,0,1,3.04,3.04v0a3.041,3.041,0,0,1-3.041,3.041H3.04A3.04,3.04,0,0,1,0,3.041v0A3.04,3.04,0,0,1,3.04,0Z" transform="translate(1.265 49.588)" fill="none" stroke="#fff" stroke-linecap="round" stroke-linejoin="round" stroke-width="3"/>
        <line id="Línea_3297" data-name="Línea 3297" x1="20.819" transform="translate(9.97 12.487)" fill="none" stroke="#fff" stroke-linecap="round" stroke-linejoin="round" stroke-width="3"/>
        <path id="Trazado_1038879" data-name="Trazado 1038879" d="M206.184,55.773l4.361,4.588a1.22,1.22,0,0,1,0,1.682l-4.361,4.588" transform="translate(-180.092 -48.715)" fill="none" stroke="#fff" stroke-linecap="round" stroke-linejoin="round" stroke-width="3"/>
        <path id="Trazado_1038880" data-name="Trazado 1038880" d="M321.254,506.152h2.464a2.308,2.308,0,1,0,0-4.616h-.57a2.308,2.308,0,0,1,0-4.617h2.464" transform="translate(-280.237 -434.034)" fill="none" stroke="#fff" stroke-linecap="round" stroke-linejoin="round" stroke-width="3"/>
        <line id="Línea_3298" data-name="Línea 3298" y1="1.879" transform="translate(43.195 72.117)" fill="none" stroke="#fff" stroke-linecap="round" stroke-linejoin="round" stroke-width="3"/>
        <line id="Línea_3299" data-name="Línea 3299" y1="1.879" transform="translate(43.195 61.006)" fill="none" stroke="#fff" stroke-linecap="round" stroke-linejoin="round" stroke-width="3"/>
      </g>
    </g>
  </g>
</svg>
