<svg xmlns="http://www.w3.org/2000/svg" xmlns:xlink="http://www.w3.org/1999/xlink" width="135.513" height="135.512" viewBox="0 0 135.513 135.512">
  <defs>
    <clipPath id="clip-path">
      <rect id="Rectángulo_457631" data-name="Rectángulo 457631" width="97.247" height="99.752" fill="#12263f"/>
    </clipPath>
  </defs>
  <g id="Grupo_1196603" data-name="Grupo 1196603" transform="translate(-730.189 -4050.995)">
    <g id="Grupo_1196602" data-name="Grupo 1196602">
      <g id="Grupo_1196601" data-name="Grupo 1196601">
        <g id="Grupo_1196600" data-name="Grupo 1196600">
          <g id="Grupo_1177305" data-name="Grupo 1177305" transform="translate(730.189 4050.995)">
            <g id="Grupo_1176953" data-name="Grupo 1176953" transform="translate(0 0)">
              <path id="Trazado_993120" data-name="Trazado 993120" d="M135.513,67.757A67.756,67.756,0,1,1,67.756,0a67.756,67.756,0,0,1,67.757,67.757" transform="translate(0 0)" fill="#38ce65"/>
            </g>
          </g>
          <g id="Grupo_1196361" data-name="Grupo 1196361" transform="translate(752 4071)">
            <g id="Grupo_1196360" data-name="Grupo 1196360" clip-path="url(#clip-path)">
              <path id="Trazado_1038442" data-name="Trazado 1038442" d="M59.246,55.885,46.975,48.8a17.222,17.222,0,0,0-8.053-12.019l-5.8-8.471a3.805,3.805,0,0,0-5.157-1.342,3.914,3.914,0,0,0-1.914,2.464C25.407,32.025,27.4,35.217,29,37.781c.161.258.338.543.512.828L16.146,30.895A4.529,4.529,0,0,0,9.4,34.261l-2.249-1.3a4.532,4.532,0,0,0-5.271,7.317,4.523,4.523,0,0,0,.391,7.595l2.97,1.715a4.541,4.541,0,0,0,.3,4.454,4.532,4.532,0,0,0-1.593,7.434l2.479,2.478h0L7.448,64.98a4.492,4.492,0,0,0-1.5.988,4.556,4.556,0,0,0-.028,6.381l3.886,3.883q2.055,2.053,4.108,4.108L17.8,84.226a17.008,17.008,0,0,0,13.55,4.933L41.533,99.346a1.386,1.386,0,0,0,1.96,0l13.42-13.42a1.386,1.386,0,0,0,0-1.96L46.9,73.949c0-.026,0-.053.007-.079l1.471.848a1.385,1.385,0,0,0,1.892-.507l9.487-16.432a1.386,1.386,0,0,0-.507-1.893ZM53.974,84.946l-11.46,11.46L32.84,86.732a1.383,1.383,0,0,0-1.151-.4,14.27,14.27,0,0,1-11.933-4.07l-3.883-3.886-4.109-4.109L7.893,70.4a1.76,1.76,0,0,1,2.486-2.493l3.934,3.934a1.386,1.386,0,0,0,1.96-1.96l-3.943-3.943h0L5.9,59.516a1.758,1.758,0,0,1,2.489-2.484c.019.019.039.036.059.053l8.862,8.861a1.386,1.386,0,0,0,1.96-1.96l-8.92-8.92-.011-.01-.045-.047L8.076,52.79A1.76,1.76,0,0,1,10.563,50.3q2.374,2.382,4.759,4.759l0,0,7.887,7.887a1.386,1.386,0,1,0,1.96-1.96l-7.878-7.878A1.758,1.758,0,0,1,19.8,50.643l12.1,12.1a1.383,1.383,0,0,0,.288.22c.462.267,1.87,1.078,2.96.211,1.218-.969.689-2.7-.112-5.329-.651-2.136-1.636-5.363-.911-6.671a1.124,1.124,0,0,1,.778-.55,1.035,1.035,0,0,1,1.263.729q.013.049.03.1l3.523,10.02a1.387,1.387,0,0,0,.327.52,14.426,14.426,0,0,1,4.024,12.26,1.386,1.386,0,0,0,.391,1.182l9.517,9.517ZM48.559,71.625l-1.632-.941a17.17,17.17,0,0,0-4.7-10.428L38.82,50.57a3.812,3.812,0,0,0-4.639-2.627A3.914,3.914,0,0,0,31.7,49.827c-1.295,2.336-.2,5.933.684,8.823.089.292.187.614.282.936L21.746,48.67a4.526,4.526,0,0,0-7.386,1.51q-.918-.919-1.835-1.839a4.546,4.546,0,0,0-5.305-.81L3.653,45.472A1.759,1.759,0,1,1,5.41,42.426l7.3,4.213a1.386,1.386,0,0,0,1.385-2.4L6.829,40.044l-.012-.008c-.029-.02-.059-.039-.09-.056L4,38.409A1.77,1.77,0,0,1,3.359,36a1.762,1.762,0,0,1,2.4-.643q2.912,1.684,5.831,3.367h0L21.248,44.3a1.386,1.386,0,0,0,1.386-2.4l-9.642-5.569A1.759,1.759,0,0,1,14.773,33.3l14.811,8.55a1.376,1.376,0,0,0,.334.138c.516.138,2.086.559,2.915-.56.926-1.25-.033-2.788-1.485-5.117-1.182-1.895-2.968-4.759-2.606-6.21a1.127,1.127,0,0,1,.61-.734,1.03,1.03,0,0,1,1.4.379c.018.03.036.061.056.089l6,8.763a1.388,1.388,0,0,0,.45.417,14.433,14.433,0,0,1,7.059,10.8A1.386,1.386,0,0,0,45,50.863l11.658,6.73-8.1,14.033ZM80.918,39.4A15.453,15.453,0,1,0,56.949,26.5V46.134a10.088,10.088,0,0,0,20.175.146,8.243,8.243,0,0,1,3.8-6.884ZM67.036,53.45a7.324,7.324,0,0,1-7.316-7.316V26.5A12.682,12.682,0,1,1,79.389,37.084a10.942,10.942,0,0,0-5.036,9.137A7.314,7.314,0,0,1,67.036,53.45Zm10.1-19.089a1.386,1.386,0,1,1-1.431-2.373,6.408,6.408,0,1,0-9.714-5.49,1.386,1.386,0,1,1-2.772,0,9.179,9.179,0,1,1,13.917,7.863Zm-2.521-4.532a1.386,1.386,0,1,1-1.426-2.376,1.525,1.525,0,0,0-.053-2.641,1.386,1.386,0,1,1,1.354-2.418,4.3,4.3,0,0,1,.126,7.436Zm-.992,6.544c.7,3.2-1.2,6.294-3.26,7.819a5.969,5.969,0,0,1-3.522,1.258,4.557,4.557,0,0,1-2.261-.59c-1.016-.579-1.543-1.893-1.663-4.135a16.133,16.133,0,0,1,.243-3.9,1.386,1.386,0,0,1,2.7.623c-.31,1.343-.255,4.345.174,5.044a2.737,2.737,0,0,0,2.681-.532,5.371,5.371,0,0,0,2.2-5A4.385,4.385,0,0,0,66.649,33.5a1.386,1.386,0,0,1,.011-2.771h.012a7.142,7.142,0,0,1,6.953,5.645Zm3.818,24.744a1.386,1.386,0,0,1-.717-2.677,6.834,6.834,0,0,0,4.832-8.374,1.386,1.386,0,1,1,2.678-.715,9.605,9.605,0,0,1-6.792,11.767Zm1.745,6.519a1.386,1.386,0,0,1-.718-2.677,13.576,13.576,0,0,0,9.607-16.637,1.386,1.386,0,1,1,2.677-.718A16.347,16.347,0,0,1,79.188,67.636Zm15.063-4.657a22.107,22.107,0,0,1-13.527,10.38,1.386,1.386,0,1,1-.716-2.677A19.507,19.507,0,0,0,93.8,46.791a1.386,1.386,0,0,1,2.676-.719A22.13,22.13,0,0,1,94.251,62.978ZM36.791,24.865A23.574,23.574,0,0,0,57.133,13.127a1.386,1.386,0,0,0,0-1.388,23.49,23.49,0,0,0-40.678,0,1.386,1.386,0,0,0,0,1.388A23.569,23.569,0,0,0,36.791,24.865Zm0-22.093a20.8,20.8,0,0,1,17.523,9.661,20.717,20.717,0,0,1-35.04,0A20.791,20.791,0,0,1,36.791,2.772m0,18.435a8.775,8.775,0,1,0-8.769-8.775,8.785,8.785,0,0,0,8.769,8.775m0-14.778a6,6,0,1,1-6,6,6.01,6.01,0,0,1,6-6" transform="translate(0 0)" fill="#12263f"/>
            </g>
          </g>
        </g>
      </g>
    </g>
  </g>
</svg>
