<svg id="Grupo_1100683" data-name="Grupo 1100683" xmlns="http://www.w3.org/2000/svg" xmlns:xlink="http://www.w3.org/1999/xlink" width="103.376" height="101.349" viewBox="0 0 103.376 101.349">
  <defs>
    <clipPath id="clip-path">
      <rect id="Rectángulo_401095" data-name="Rectángulo 401095" width="103.376" height="101.349" fill="none"/>
    </clipPath>
  </defs>
  <g id="Grupo_1099348" data-name="Grupo 1099348" clip-path="url(#clip-path)">
    <path id="Trazado_873436" data-name="Trazado 873436" d="M0,9.712V42.64a9.685,9.685,0,0,0,2.849,6.868C9.76,56.429,37.909,84.578,49.9,96.564a12.943,12.943,0,0,0,18.307,0c8.546-8.543,23.05-23.045,31.6-31.588a12.962,12.962,0,0,0,0-18.313C88.491,35.358,62.545,9.4,55.989,2.844A9.758,9.758,0,0,0,49.11,0H9.712A9.718,9.718,0,0,0,0,9.712m19.424,3.237a6.475,6.475,0,1,1-6.475,6.475,6.475,6.475,0,0,1,6.475-6.475" transform="translate(0 0)" fill="#fbe737" fill-rule="evenodd"/>
    <path id="Trazado_873437" data-name="Trazado 873437" d="M1.76,2.844A9.692,9.692,0,0,1,8.623,0h39.4A9.758,9.758,0,0,1,54.9,2.844C61.456,9.4,87.4,35.358,98.717,46.662a12.962,12.962,0,0,1,0,18.313L81.3,82.387,22.916,24a6.476,6.476,0,0,0-9.162-9.155Z" transform="translate(1.089 0)" fill="#f5cd20" fill-rule="evenodd"/>
    <path id="Trazado_873438" data-name="Trazado 873438" d="M51.878,22.261A11.325,11.325,0,0,0,35.9,38.236l-6.879,6.887a5.236,5.236,0,0,1-1.1-5.117,3.237,3.237,0,0,0-6.151-2.02A11.707,11.707,0,0,0,24.442,49.7L22.144,52a3.238,3.238,0,0,0,4.581,4.578l2.315-2.313A11.325,11.325,0,0,0,45.015,38.286L51.894,31.4A5.2,5.2,0,0,1,53,36.515a3.237,3.237,0,0,0,6.151,2.02,11.672,11.672,0,0,0-2.671-11.717l2.3-2.292a3.238,3.238,0,0,0-4.581-4.578ZM40.4,42.9l-6.75,6.753A4.84,4.84,0,0,0,40.4,42.9Zm6.863-16.023a4.84,4.84,0,0,0-6.75,6.753Z" transform="translate(13.11 11.754)" fill="#3e3e3e" fill-rule="evenodd"/>
    <path id="Trazado_873439" data-name="Trazado 873439" d="M29.612,35.539,42.788,48.72a11.434,11.434,0,0,0-2.347-10.434L47.32,31.4a5.2,5.2,0,0,1,1.1,5.117,3.237,3.237,0,0,0,6.151,2.02A11.672,11.672,0,0,0,51.9,26.818l2.3-2.292a3.238,3.238,0,0,0-4.581-4.578L47.3,22.261A11.313,11.313,0,0,0,29.612,35.539M42.69,26.873a4.84,4.84,0,0,0-6.75,6.753Z" transform="translate(17.685 11.754)" fill="#2e2e2e" fill-rule="evenodd"/>
  </g>
</svg>
