<svg xmlns="http://www.w3.org/2000/svg" width="93.5" height="88.021" viewBox="0 0 93.5 88.021">
  <g id="Grupo_1100680" data-name="Grupo 1100680" transform="translate(-17.25 -22.729)">
    <path id="Trazado_873811" data-name="Trazado 873811" d="M100.061,67.123V109H28.308V67.112a8.979,8.979,0,0,0,8.711-8.978H90.973a8.994,8.994,0,0,0,9,8.989Z" fill="#f9d16e"/>
    <path id="Trazado_873812" data-name="Trazado 873812" d="M37.018,58.136a8.979,8.979,0,0,1-8.711,8.978,2.349,2.349,0,0,1-.278.011,8.992,8.992,0,0,1-8.989-8.989Z" fill="#e84949"/>
    <path id="Trazado_873813" data-name="Trazado 873813" d="M46.015,67.127a8.992,8.992,0,0,0,8.992-8.993H37.023a8.992,8.992,0,0,0,8.993,8.993Z" fill="#f4ebd4"/>
    <path id="Trazado_873814" data-name="Trazado 873814" d="M64,67.127a8.992,8.992,0,0,0,8.992-8.993H55.007A8.993,8.993,0,0,0,64,67.127Z" fill="#e84949"/>
    <path id="Trazado_873815" data-name="Trazado 873815" d="M81.984,67.127a8.992,8.992,0,0,0,8.992-8.993H72.992a8.992,8.992,0,0,0,8.993,8.993Z" fill="#f4ebd4"/>
    <path id="Trazado_873816" data-name="Trazado 873816" d="M108.961,58.134a9,9,0,0,1-8.9,8.989h-.089a8.994,8.994,0,0,1-9-8.989Z" fill="#e84949"/>
    <path id="Trazado_873817" data-name="Trazado 873817" d="M90.976,58.134H72.992L71.879,37.593h14Z" fill="#fff8e3"/>
    <path id="Trazado_873818" data-name="Trazado 873818" d="M108.961,58.134H90.976l-5.1-20.541H97.419Z" fill="#ff5959"/>
    <path id="Trazado_873819" data-name="Trazado 873819" d="M37.026,58.134H55.011l1.112-20.541h-14Z" fill="#fff8e3"/>
    <path id="Trazado_873820" data-name="Trazado 873820" d="M19.042,58.134H37.026l5.1-20.541H30.583Z" fill="#ff5959"/>
    <path id="Trazado_873821" data-name="Trazado 873821" d="M71.879,37.593H56.123L55.011,58.134H72.992Z" fill="#ff5959"/>
    <path id="Trazado_873822" data-name="Trazado 873822" d="M38.833,74H64v35H38.833Z" fill="#b7e8ed"/>
    <path id="Trazado_873823" data-name="Trazado 873823" d="M64.185,74H89.351v35H64.185Z" fill="#b7e8ed"/>
    <path id="Trazado_873824" data-name="Trazado 873824" d="M30.583,22.729H97.419V37.593H30.583Z" fill="#e84949"/>
    <g id="Grupo_1100675" data-name="Grupo 1100675">
      <path id="Trazado_873825" data-name="Trazado 873825" d="M109,110.75H19a1.75,1.75,0,1,1,0-3.5h90a1.75,1.75,0,1,1,0,3.5Z" fill="#2d1f5e"/>
      <path id="Trazado_873826" data-name="Trazado 873826" d="M58.393,94.675a1.75,1.75,0,0,1-1.75-1.75v-2.85a1.75,1.75,0,0,1,3.5,0v2.85a1.75,1.75,0,0,1-1.75,1.75Z" fill="#2d1f5e"/>
      <path id="Trazado_873827" data-name="Trazado 873827" d="M69.977,94.675a1.749,1.749,0,0,1-1.75-1.75v-2.85a1.75,1.75,0,0,1,3.5,0v2.85a1.75,1.75,0,0,1-1.75,1.75Z" fill="#2d1f5e"/>
    </g>
  </g>
</svg>
